<?xml version="1.0" encoding="UTF-8" standalone="no"?>
<!-- Created with Inkscape (http://www.inkscape.org/) -->

<svg
   xmlns:dc="http://purl.org/dc/elements/1.1/"
   xmlns:cc="http://creativecommons.org/ns#"
   xmlns:rdf="http://www.w3.org/1999/02/22-rdf-syntax-ns#"
   xmlns:svg="http://www.w3.org/2000/svg"
   xmlns="http://www.w3.org/2000/svg"
   xmlns:xlink="http://www.w3.org/1999/xlink"
   xmlns:sodipodi="http://sodipodi.sourceforge.net/DTD/sodipodi-0.dtd"
   xmlns:inkscape="http://www.inkscape.org/namespaces/inkscape"
   width="744.09448819"
   height="1052.3622047"
   id="svg8661"
   version="1.1"
   inkscape:version="0.48.4 r9939"
   sodipodi:docname="Nowy dokument 18">
  <defs
     id="defs8663">
    <linearGradient
       inkscape:collect="always"
       xlink:href="#linearGradient4453-7-8-6-7-57-9-2"
       id="linearGradient10687-1-1-25"
       gradientUnits="userSpaceOnUse"
       x1="753.02301"
       y1="3132.0801"
       x2="1146.25"
       y2="3132.0801" />
    <linearGradient
       id="linearGradient4453-7-8-6-7-57-9-2">
      <stop
         style="stop-color:#aac4dd;stop-opacity:1;"
         offset="0"
         id="stop4455-61-8-7-1-7-7-2" />
      <stop
         style="stop-color:#c2dbe9;stop-opacity:1;"
         offset="1"
         id="stop4457-4-1-9-1-9-0-3" />
    </linearGradient>
    <linearGradient
       inkscape:collect="always"
       xlink:href="#linearGradient4453-7-8-6-7-57-9-2"
       id="linearGradient10685-4-9-0"
       gradientUnits="userSpaceOnUse"
       x1="753.02301"
       y1="3132.0801"
       x2="1146.25"
       y2="3132.0801" />
    <linearGradient
       id="linearGradient8435">
      <stop
         style="stop-color:#aac4dd;stop-opacity:1;"
         offset="0"
         id="stop8437" />
      <stop
         style="stop-color:#c2dbe9;stop-opacity:1;"
         offset="1"
         id="stop8439" />
    </linearGradient>
    <clipPath
       clipPathUnits="userSpaceOnUse"
       id="clipPath3387-3-6-4-2-17-3-87">
      <path
         inkscape:connector-curvature="0"
         d="m 862.109,3289.75 -109.086,-190.45 69.122,-124.42 164.511,-0.47 c 0,0 111.044,188.28 116.564,197.63 7.66,0 43.03,0 43.03,0 l -67.03,117.71 -217.111,0 z"
         id="path3389-2-0-7-7-85-3-2" />
    </clipPath>
    <linearGradient
       inkscape:collect="always"
       xlink:href="#linearGradient4453-7-8-6-7-57-9-2"
       id="linearGradient12489-8"
       gradientUnits="userSpaceOnUse"
       x1="753.02301"
       y1="3132.0801"
       x2="1146.25"
       y2="3132.0801" />
    <linearGradient
       id="linearGradient8444">
      <stop
         style="stop-color:#aac4dd;stop-opacity:1;"
         offset="0"
         id="stop8446" />
      <stop
         style="stop-color:#c2dbe9;stop-opacity:1;"
         offset="1"
         id="stop8448" />
    </linearGradient>
    <linearGradient
       inkscape:collect="always"
       xlink:href="#linearGradient4453-7-8-6-7-57-9-2"
       id="linearGradient10691-8-1-3"
       gradientUnits="userSpaceOnUse"
       x1="1026.6899"
       y1="2937.73"
       x2="1463.14"
       y2="2937.73" />
    <linearGradient
       id="linearGradient8451">
      <stop
         style="stop-color:#aac4dd;stop-opacity:1;"
         offset="0"
         id="stop8453" />
      <stop
         style="stop-color:#c2dbe9;stop-opacity:1;"
         offset="1"
         id="stop8455" />
    </linearGradient>
    <linearGradient
       inkscape:collect="always"
       xlink:href="#linearGradient4453-7-8-6-7-57-9-2"
       id="linearGradient10689-8-3-7"
       gradientUnits="userSpaceOnUse"
       x1="1026.6899"
       y1="2937.73"
       x2="1463.14"
       y2="2937.73" />
    <linearGradient
       id="linearGradient8458">
      <stop
         style="stop-color:#aac4dd;stop-opacity:1;"
         offset="0"
         id="stop8460" />
      <stop
         style="stop-color:#c2dbe9;stop-opacity:1;"
         offset="1"
         id="stop8462" />
    </linearGradient>
    <clipPath
       clipPathUnits="userSpaceOnUse"
       id="clipPath3369-1-5-6-1-4-5-5">
      <path
         inkscape:connector-curvature="0"
         d="m 1131.64,3128.5 -104.95,-181.12 116.38,-200.42 208.05,0.94 112.02,191.63 -112.08,188.97 -219.42,0 z"
         id="path3371-89-4-1-6-2-6-4" />
    </clipPath>
    <linearGradient
       y2="2937.73"
       x2="1463.14"
       y1="2937.73"
       x1="1026.6899"
       gradientUnits="userSpaceOnUse"
       id="linearGradient4498-3-9-1"
       xlink:href="#linearGradient4453-7-8-6-7-57-9-2"
       inkscape:collect="always" />
    <linearGradient
       id="linearGradient8467">
      <stop
         style="stop-color:#aac4dd;stop-opacity:1;"
         offset="0"
         id="stop8469" />
      <stop
         style="stop-color:#c2dbe9;stop-opacity:1;"
         offset="1"
         id="stop8471" />
    </linearGradient>
    <linearGradient
       inkscape:collect="always"
       xlink:href="#linearGradient4459-1-2-8-9-41-9-2"
       id="linearGradient10695-8-5-8"
       gradientUnits="userSpaceOnUse"
       x1="646.55499"
       y1="2736.25"
       x2="1088.27"
       y2="2736.25" />
    <linearGradient
       id="linearGradient4459-1-2-8-9-41-9-2">
      <stop
         id="stop4461-2-1-5-2-3-8-9"
         offset="0"
         style="stop-color:#839bc2;stop-opacity:1;" />
      <stop
         id="stop4463-3-2-8-7-0-8-6"
         offset="1"
         style="stop-color:#9fb6d4;stop-opacity:1;" />
    </linearGradient>
    <linearGradient
       inkscape:collect="always"
       xlink:href="#linearGradient4459-1-2-8-9-41-9-2"
       id="linearGradient10693-4-3-8"
       gradientUnits="userSpaceOnUse"
       x1="646.55499"
       y1="2736.25"
       x2="1088.27"
       y2="2736.25" />
    <linearGradient
       id="linearGradient8478">
      <stop
         id="stop8480"
         offset="0"
         style="stop-color:#839bc2;stop-opacity:1;" />
      <stop
         id="stop8482"
         offset="1"
         style="stop-color:#9fb6d4;stop-opacity:1;" />
    </linearGradient>
    <clipPath
       clipPathUnits="userSpaceOnUse"
       id="clipPath3351-4-7-3-5-1-9-9">
      <path
         inkscape:connector-curvature="0"
         d="m 757.242,2926.25 -110.687,-189.11 110.656,-190.89 219.437,0 111.622,189.1 -111.59,190.9 -219.438,0 z"
         id="path3353-1-9-3-4-7-5-8" />
    </clipPath>
    <linearGradient
       y2="2736.25"
       x2="1088.27"
       y1="2736.25"
       x1="646.55499"
       gradientUnits="userSpaceOnUse"
       id="linearGradient4510-7-1-1"
       xlink:href="#linearGradient4459-1-2-8-9-41-9-2"
       inkscape:collect="always" />
    <linearGradient
       id="linearGradient8487">
      <stop
         id="stop8489"
         offset="0"
         style="stop-color:#839bc2;stop-opacity:1;" />
      <stop
         id="stop8491"
         offset="1"
         style="stop-color:#9fb6d4;stop-opacity:1;" />
    </linearGradient>
    <radialGradient
       inkscape:collect="always"
       xlink:href="#radialGradient3327-8-4-8-0-1-6-3"
       id="radialGradient10699-2-3-6"
       gradientUnits="userSpaceOnUse"
       cx="997.46997"
       cy="2896.25"
       fx="997.46997"
       fy="2896.25"
       r="583.73999" />
    <radialGradient
       fx="0"
       fy="0"
       cx="0"
       cy="0"
       r="1"
       gradientUnits="userSpaceOnUse"
       gradientTransform="matrix(58.375,0,0,-58.375,99.75,289.625)"
       spreadMethod="pad"
       id="radialGradient3327-8-4-8-0-1-6-3">
      <stop
         style="stop-opacity:1;stop-color:#aeaeb3"
         offset="0"
         id="stop3329-7-0-1-0-313-2-7" />
      <stop
         style="stop-opacity:1;stop-color:#ffffff"
         offset="0.949438"
         id="stop3331-4-3-0-0-1-8-5" />
      <stop
         style="stop-opacity:1;stop-color:#ffffff"
         offset="1"
         id="stop3333-2-4-9-7-5-8-4" />
    </radialGradient>
    <radialGradient
       r="583.73999"
       fy="2896.25"
       fx="997.46997"
       cy="2896.25"
       cx="997.46997"
       gradientUnits="userSpaceOnUse"
       id="radialGradient12306-1"
       xlink:href="#radialGradient3327-8-4-8-0-1-6-3"
       inkscape:collect="always" />
    <radialGradient
       fx="0"
       fy="0"
       cx="0"
       cy="0"
       r="1"
       gradientUnits="userSpaceOnUse"
       gradientTransform="matrix(58.375,0,0,-58.375,99.75,289.625)"
       spreadMethod="pad"
       id="radialGradient8499">
      <stop
         style="stop-opacity:1;stop-color:#aeaeb3"
         offset="0"
         id="stop8501" />
      <stop
         style="stop-opacity:1;stop-color:#ffffff"
         offset="0.949438"
         id="stop8503" />
      <stop
         style="stop-opacity:1;stop-color:#ffffff"
         offset="1"
         id="stop8505" />
    </radialGradient>
    <clipPath
       clipPathUnits="userSpaceOnUse"
       id="clipPath3323-7-2-4-5-50-9-0">
      <path
         inkscape:connector-curvature="0"
         d="m 997.469,2312.51 c -322.379,0 -583.739,261.36 -583.739,583.74 0,322.38 261.36,583.74 583.739,583.74 322.381,0 583.741,-261.36 583.741,-583.74 0,-322.38 -261.36,-583.74 -583.741,-583.74"
         id="path3325-9-2-9-5-5-8-1" />
    </clipPath>
    <radialGradient
       r="583.73999"
       fy="2896.25"
       fx="997.46997"
       cy="2896.25"
       cx="997.46997"
       gradientUnits="userSpaceOnUse"
       id="radialGradient4516-1-1-2"
       xlink:href="#radialGradient3327-8-4-8-0-1-6-3"
       inkscape:collect="always" />
    <radialGradient
       fx="0"
       fy="0"
       cx="0"
       cy="0"
       r="1"
       gradientUnits="userSpaceOnUse"
       gradientTransform="matrix(58.375,0,0,-58.375,99.75,289.625)"
       spreadMethod="pad"
       id="radialGradient8510">
      <stop
         style="stop-opacity:1;stop-color:#aeaeb3"
         offset="0"
         id="stop8512" />
      <stop
         style="stop-opacity:1;stop-color:#ffffff"
         offset="0.949438"
         id="stop8514" />
      <stop
         style="stop-opacity:1;stop-color:#ffffff"
         offset="1"
         id="stop8516" />
    </radialGradient>
    <linearGradient
       inkscape:collect="always"
       xlink:href="#linearGradient4453-7-8-6-7-57-8"
       id="linearGradient10687-1-2"
       gradientUnits="userSpaceOnUse"
       x1="753.02301"
       y1="3132.0801"
       x2="1146.25"
       y2="3132.0801" />
    <linearGradient
       id="linearGradient4453-7-8-6-7-57-8">
      <stop
         style="stop-color:#aac4dd;stop-opacity:1;"
         offset="0"
         id="stop4455-61-8-7-1-7-5" />
      <stop
         style="stop-color:#c2dbe9;stop-opacity:1;"
         offset="1"
         id="stop4457-4-1-9-1-9-4" />
    </linearGradient>
    <linearGradient
       inkscape:collect="always"
       xlink:href="#linearGradient4453-7-8-6-7-57-8"
       id="linearGradient10685-4-6"
       gradientUnits="userSpaceOnUse"
       x1="753.02301"
       y1="3132.0801"
       x2="1146.25"
       y2="3132.0801" />
    <linearGradient
       id="linearGradient8523">
      <stop
         style="stop-color:#aac4dd;stop-opacity:1;"
         offset="0"
         id="stop8525" />
      <stop
         style="stop-color:#c2dbe9;stop-opacity:1;"
         offset="1"
         id="stop8527" />
    </linearGradient>
    <clipPath
       clipPathUnits="userSpaceOnUse"
       id="clipPath3387-3-6-4-2-17-7">
      <path
         inkscape:connector-curvature="0"
         d="m 862.109,3289.75 -109.086,-190.45 69.122,-124.42 164.511,-0.47 c 0,0 111.044,188.28 116.564,197.63 7.66,0 43.03,0 43.03,0 l -67.03,117.71 -217.111,0 z"
         id="path3389-2-0-7-7-85-7" />
    </clipPath>
    <linearGradient
       y2="3132.0801"
       x2="1146.25"
       y1="3132.0801"
       x1="753.02301"
       gradientUnits="userSpaceOnUse"
       id="linearGradient4492-7-3"
       xlink:href="#linearGradient4453-7-8-6-7-57-8"
       inkscape:collect="always" />
    <linearGradient
       id="linearGradient8532">
      <stop
         style="stop-color:#aac4dd;stop-opacity:1;"
         offset="0"
         id="stop8534" />
      <stop
         style="stop-color:#c2dbe9;stop-opacity:1;"
         offset="1"
         id="stop8536" />
    </linearGradient>
    <linearGradient
       inkscape:collect="always"
       xlink:href="#linearGradient4453-7-8-6-7-57-8"
       id="linearGradient10691-8-4"
       gradientUnits="userSpaceOnUse"
       x1="1026.6899"
       y1="2937.73"
       x2="1463.14"
       y2="2937.73" />
    <linearGradient
       id="linearGradient8539">
      <stop
         style="stop-color:#aac4dd;stop-opacity:1;"
         offset="0"
         id="stop8541" />
      <stop
         style="stop-color:#c2dbe9;stop-opacity:1;"
         offset="1"
         id="stop8543" />
    </linearGradient>
    <linearGradient
       inkscape:collect="always"
       xlink:href="#linearGradient4453-7-8-6-7-57-8"
       id="linearGradient15660"
       gradientUnits="userSpaceOnUse"
       x1="1026.6899"
       y1="2937.73"
       x2="1463.14"
       y2="2937.73" />
    <linearGradient
       id="linearGradient8546">
      <stop
         style="stop-color:#aac4dd;stop-opacity:1;"
         offset="0"
         id="stop8548" />
      <stop
         style="stop-color:#c2dbe9;stop-opacity:1;"
         offset="1"
         id="stop8550" />
    </linearGradient>
    <clipPath
       clipPathUnits="userSpaceOnUse"
       id="clipPath3369-1-5-6-1-4-9">
      <path
         inkscape:connector-curvature="0"
         d="m 1131.64,3128.5 -104.95,-181.12 116.38,-200.42 208.05,0.94 112.02,191.63 -112.08,188.97 -219.42,0 z"
         id="path3371-89-4-1-6-2-1" />
    </clipPath>
    <linearGradient
       y2="2937.73"
       x2="1463.14"
       y1="2937.73"
       x1="1026.6899"
       gradientUnits="userSpaceOnUse"
       id="linearGradient4498-3-8"
       xlink:href="#linearGradient4453-7-8-6-7-57-8"
       inkscape:collect="always" />
    <linearGradient
       id="linearGradient8555">
      <stop
         style="stop-color:#aac4dd;stop-opacity:1;"
         offset="0"
         id="stop8557" />
      <stop
         style="stop-color:#c2dbe9;stop-opacity:1;"
         offset="1"
         id="stop8559" />
    </linearGradient>
    <linearGradient
       inkscape:collect="always"
       xlink:href="#linearGradient4459-1-2-8-9-41-8"
       id="linearGradient10695-8-3"
       gradientUnits="userSpaceOnUse"
       x1="646.55499"
       y1="2736.25"
       x2="1088.27"
       y2="2736.25" />
    <linearGradient
       id="linearGradient4459-1-2-8-9-41-8">
      <stop
         id="stop4461-2-1-5-2-3-7"
         offset="0"
         style="stop-color:#839bc2;stop-opacity:1;" />
      <stop
         id="stop4463-3-2-8-7-0-9"
         offset="1"
         style="stop-color:#9fb6d4;stop-opacity:1;" />
    </linearGradient>
    <linearGradient
       inkscape:collect="always"
       xlink:href="#linearGradient4459-1-2-8-9-41-8"
       id="linearGradient10693-4-7"
       gradientUnits="userSpaceOnUse"
       x1="646.55499"
       y1="2736.25"
       x2="1088.27"
       y2="2736.25" />
    <linearGradient
       id="linearGradient8566">
      <stop
         id="stop8568"
         offset="0"
         style="stop-color:#839bc2;stop-opacity:1;" />
      <stop
         id="stop8570"
         offset="1"
         style="stop-color:#9fb6d4;stop-opacity:1;" />
    </linearGradient>
    <clipPath
       clipPathUnits="userSpaceOnUse"
       id="clipPath3351-4-7-3-5-1-1">
      <path
         inkscape:connector-curvature="0"
         d="m 757.242,2926.25 -110.687,-189.11 110.656,-190.89 219.437,0 111.622,189.1 -111.59,190.9 -219.438,0 z"
         id="path3353-1-9-3-4-7-1" />
    </clipPath>
    <linearGradient
       y2="2736.25"
       x2="1088.27"
       y1="2736.25"
       x1="646.55499"
       gradientUnits="userSpaceOnUse"
       id="linearGradient4510-7-4"
       xlink:href="#linearGradient4459-1-2-8-9-41-8"
       inkscape:collect="always" />
    <linearGradient
       id="linearGradient8575">
      <stop
         id="stop8577"
         offset="0"
         style="stop-color:#839bc2;stop-opacity:1;" />
      <stop
         id="stop8579"
         offset="1"
         style="stop-color:#9fb6d4;stop-opacity:1;" />
    </linearGradient>
    <radialGradient
       inkscape:collect="always"
       xlink:href="#radialGradient3327-8-4-8-0-1-2"
       id="radialGradient10699-2-35"
       gradientUnits="userSpaceOnUse"
       cx="997.46997"
       cy="2896.25"
       fx="997.46997"
       fy="2896.25"
       r="583.73999" />
    <radialGradient
       fx="0"
       fy="0"
       cx="0"
       cy="0"
       r="1"
       gradientUnits="userSpaceOnUse"
       gradientTransform="matrix(58.375,0,0,-58.375,99.75,289.625)"
       spreadMethod="pad"
       id="radialGradient3327-8-4-8-0-1-2">
      <stop
         style="stop-opacity:1;stop-color:#aeaeb3"
         offset="0"
         id="stop3329-7-0-1-0-313-9" />
      <stop
         style="stop-opacity:1;stop-color:#ffffff"
         offset="0.949438"
         id="stop3331-4-3-0-0-1-1" />
      <stop
         style="stop-opacity:1;stop-color:#ffffff"
         offset="1"
         id="stop3333-2-4-9-7-5-5" />
    </radialGradient>
    <radialGradient
       r="583.73999"
       fy="2896.25"
       fx="997.46997"
       cy="2896.25"
       cx="997.46997"
       gradientUnits="userSpaceOnUse"
       id="radialGradient15309"
       xlink:href="#radialGradient3327-8-4-8-0-1-2"
       inkscape:collect="always" />
    <radialGradient
       fx="0"
       fy="0"
       cx="0"
       cy="0"
       r="1"
       gradientUnits="userSpaceOnUse"
       gradientTransform="matrix(58.375,0,0,-58.375,99.75,289.625)"
       spreadMethod="pad"
       id="radialGradient8587">
      <stop
         style="stop-opacity:1;stop-color:#aeaeb3"
         offset="0"
         id="stop8589" />
      <stop
         style="stop-opacity:1;stop-color:#ffffff"
         offset="0.949438"
         id="stop8591" />
      <stop
         style="stop-opacity:1;stop-color:#ffffff"
         offset="1"
         id="stop8593" />
    </radialGradient>
    <clipPath
       clipPathUnits="userSpaceOnUse"
       id="clipPath3323-7-2-4-5-50-6">
      <path
         inkscape:connector-curvature="0"
         d="m 997.469,2312.51 c -322.379,0 -583.739,261.36 -583.739,583.74 0,322.38 261.36,583.74 583.739,583.74 322.381,0 583.741,-261.36 583.741,-583.74 0,-322.38 -261.36,-583.74 -583.741,-583.74"
         id="path3325-9-2-9-5-5-7" />
    </clipPath>
    <radialGradient
       r="583.73999"
       fy="2896.25"
       fx="997.46997"
       cy="2896.25"
       cx="997.46997"
       gradientUnits="userSpaceOnUse"
       id="radialGradient4516-1-9"
       xlink:href="#radialGradient3327-8-4-8-0-1-2"
       inkscape:collect="always" />
    <radialGradient
       fx="0"
       fy="0"
       cx="0"
       cy="0"
       r="1"
       gradientUnits="userSpaceOnUse"
       gradientTransform="matrix(58.375,0,0,-58.375,99.75,289.625)"
       spreadMethod="pad"
       id="radialGradient8598">
      <stop
         style="stop-opacity:1;stop-color:#aeaeb3"
         offset="0"
         id="stop8600" />
      <stop
         style="stop-opacity:1;stop-color:#ffffff"
         offset="0.949438"
         id="stop8602" />
      <stop
         style="stop-opacity:1;stop-color:#ffffff"
         offset="1"
         id="stop8604" />
    </radialGradient>
    <radialGradient
       r="583.73999"
       fy="2896.25"
       fx="997.46997"
       cy="2896.25"
       cx="997.46997"
       gradientUnits="userSpaceOnUse"
       id="radialGradient8659"
       xlink:href="#radialGradient3327-8-4-8-0-1-2"
       inkscape:collect="always" />
  </defs>
  <sodipodi:namedview
     id="base"
     pagecolor="#ffffff"
     bordercolor="#666666"
     borderopacity="1.0"
     inkscape:pageopacity="0.0"
     inkscape:pageshadow="2"
     inkscape:zoom="0.35"
     inkscape:cx="375"
     inkscape:cy="520"
     inkscape:document-units="px"
     inkscape:current-layer="layer1"
     showgrid="false"
     inkscape:window-width="511"
     inkscape:window-height="453"
     inkscape:window-x="50"
     inkscape:window-y="50"
     inkscape:window-maximized="0" />
  <metadata
     id="metadata8666">
    <rdf:RDF>
      <cc:Work
         rdf:about="">
        <dc:format>image/svg+xml</dc:format>
        <dc:type
           rdf:resource="http://purl.org/dc/dcmitype/StillImage" />
        <dc:title></dc:title>
      </cc:Work>
    </rdf:RDF>
  </metadata>
  <g
     inkscape:label="Layer 1"
     inkscape:groupmode="layer"
     id="layer1">
    <g
       id="g3319-1-2-5-1-2"
       transform="matrix(0.10419818,0,0,-0.10419818,175.29149,783.18309)"
       style="fill:url(#radialGradient10699-2-35);fill-opacity:1"
       inkscape:export-filename="C:\Users\Adam\Desktop\bg_logo1.png"
       inkscape:export-xdpi="63.625523"
       inkscape:export-ydpi="63.625523">
      <g
         clip-path="url(#clipPath3323-7-2-4-5-50-6)"
         id="g3321-9-2-7-4-2"
         style="fill:url(#radialGradient8659);fill-opacity:1">
        <path
           id="path3335-8-7-3-8-1"
           style="fill:url(#radialGradient4516-1-9);fill-opacity:1;fill-rule:nonzero;stroke:none"
           d="m 997.469,2312.51 c -322.379,0 -583.739,261.36 -583.739,583.74 0,322.38 261.36,583.74 583.739,583.74 322.381,0 583.741,-261.36 583.741,-583.74 0,-322.38 -261.36,-583.74 -583.741,-583.74"
           inkscape:connector-curvature="0" />
      </g>
    </g>
    <g
       id="g3347-6-8-3-7-5"
       transform="matrix(0.125,0,0,-0.125,150.26499,846.00179)"
       style="fill:url(#linearGradient10695-8-3);fill-opacity:1"
       inkscape:export-filename="C:\Users\Adam\Desktop\bg_logo1.png"
       inkscape:export-xdpi="63.625523"
       inkscape:export-ydpi="63.625523">
      <g
         clip-path="url(#clipPath3351-4-7-3-5-1-1)"
         id="g3349-5-5-4-7-5"
         style="fill:url(#linearGradient10693-4-7);fill-opacity:1">
        <path
           id="path3361-0-8-2-9-3"
           style="fill:url(#linearGradient4510-7-4);fill-opacity:1;fill-rule:nonzero;stroke:none"
           d="m 757.242,2926.25 -110.687,-189.11 110.656,-190.89 219.437,0 111.622,189.1 -111.59,190.9 -219.438,0"
           inkscape:connector-curvature="0" />
      </g>
    </g>
    <path
       id="path3363-6-9-0-1-8"
       style="fill:#ffffff;fill-opacity:1;fill-rule:nonzero;stroke:none"
       d="m 232.53011,503.86299 13.106,-22.3925 25.99649,0 13.21488,22.6088 -13.21488,22.3913 -25.99649,0 -13.106,-22.6076 z m 40.53761,-24.8925 -28.86524,0 -0.72412,1.2375 -13.106,22.3925 -0.73575,1.2563 0.73087,1.26 13.106,22.6075 0.72263,1.2463 28.86374,0 0.72512,-1.2288 13.21501,-22.3913 0.74625,-1.265 -0.74,-1.2675 -13.21538,-22.6087 -0.72313,-1.2388"
       inkscape:connector-curvature="0"
       inkscape:export-filename="C:\Users\Adam\Desktop\bg_logo1.png"
       inkscape:export-xdpi="63.625523"
       inkscape:export-ydpi="63.625523" />
    <g
       id="g3365-0-4-1-9-9"
       transform="matrix(0.125,0,0,-0.125,150.26499,846.00179)"
       style="fill:url(#linearGradient10691-8-4);fill-opacity:1"
       inkscape:export-filename="C:\Users\Adam\Desktop\bg_logo1.png"
       inkscape:export-xdpi="63.625523"
       inkscape:export-ydpi="63.625523">
      <g
         clip-path="url(#clipPath3369-1-5-6-1-4-9)"
         id="g3367-2-4-2-8-2"
         style="fill:url(#linearGradient15660);fill-opacity:1">
        <path
           id="path3379-4-6-7-6-8"
           style="fill:url(#linearGradient4498-3-8);fill-opacity:1;fill-rule:nonzero;stroke:none"
           d="m 1131.64,3128.5 -104.95,-181.12 116.38,-200.42 208.05,0.94 112.02,191.63 -112.08,188.97 -219.42,0"
           inkscape:connector-curvature="0" />
      </g>
    </g>
    <path
       id="path3381-6-8-0-0-4"
       style="fill:#ffffff;fill-opacity:1;fill-rule:nonzero;stroke:none"
       d="m 280.04623,477.57929 12.3925,-21.39 25.99622,0 13.27125,22.3762 -13.27125,22.7025 -24.56873,0.11 -13.81999,-23.7987 z m 39.81247,-23.89 -28.86122,0 -0.7225,1.2462 -12.39251,21.39 -0.72625,1.255 0.7275,1.2538 13.82001,23.7987 0.7275,1.2513 1.44624,-0.01 24.56873,-0.11 1.4275,-0.01 0.72,-1.2325 13.27125,-22.7025 0.7425,-1.27 -0.75125,-1.2663 -13.27125,-22.3762 -0.72625,-1.225"
       inkscape:connector-curvature="0"
       inkscape:export-filename="C:\Users\Adam\Desktop\bg_logo1.png"
       inkscape:export-xdpi="63.625523"
       inkscape:export-ydpi="63.625523" />
    <g
       id="g3383-5-5-2-2-2"
       transform="matrix(0.125,0,0,-0.125,150.26499,846.00179)"
       style="fill:url(#linearGradient10687-1-2);fill-opacity:1"
       inkscape:export-filename="C:\Users\Adam\Desktop\bg_logo1.png"
       inkscape:export-xdpi="63.625523"
       inkscape:export-ydpi="63.625523">
      <g
         clip-path="url(#clipPath3387-3-6-4-2-17-7)"
         id="g3385-0-6-4-8-7"
         style="fill:url(#linearGradient10685-4-6);fill-opacity:1">
        <path
           id="path3397-9-6-1-6-5"
           style="fill:url(#linearGradient4492-7-3);fill-opacity:1;fill-rule:nonzero;stroke:none"
           d="m 862.109,3289.75 -109.086,-190.45 69.122,-124.42 164.511,-0.47 c 0,0 111.044,188.28 116.564,197.63 7.66,0 43.03,0 43.03,0 l -67.03,117.71 -217.111,0"
           inkscape:connector-curvature="0" />
      </g>
    </g>
    <path
       id="path3399-6-7-3-2-8"
       style="fill:#ffffff;fill-opacity:1;fill-rule:nonzero;stroke:none"
       d="m 245.82798,458.59929 12.92424,-22.5663 25.68776,0 6.95625,12.2138 -3.94375,0 -14.56838,24.7025 -19.11525,-0.055 -7.94087,-14.295 z m 40.06575,-25.0663 -28.59013,0 -0.71975,1.2575 -12.92537,22.5663 -0.70112,1.2237 0.68512,1.2325 7.94137,14.295 0.71087,1.2825 1.46638,0 19.11525,0.055 1.43212,0 0.729,-1.2337 13.84376,-23.4725 6.81624,0 -2.12875,-3.7375 -6.95624,-12.2138 -0.71875,-1.2625"
       inkscape:connector-curvature="0"
       inkscape:export-filename="C:\Users\Adam\Desktop\bg_logo1.png"
       inkscape:export-xdpi="63.625523"
       inkscape:export-ydpi="63.625523" />
    <g
       transform="matrix(1.25,0,0,-1.25,143.20258,859.02229)"
       id="g3465-0-4"
       inkscape:export-filename="C:\Users\Adam\Desktop\bg_logo1.png"
       inkscape:export-xdpi="63.625523"
       inkscape:export-ydpi="63.625523">
      <text
         id="text3467-9-09"
         transform="matrix(1,0,-0.17627963,-1,0,0)"
         x="116.98372"
         y="-267.77499"
         style="font-size:11.81779194px">
        <tspan
           id="tspan3469-0-44"
           sodipodi:role="line"
           style="font-size:46.39999771px;font-variant:normal;font-weight:normal;writing-mode:lr-tb;fill:#49608a;fill-opacity:1;fill-rule:nonzero;stroke:none;font-family:Denmark;-inkscape-font-specification:Denmark"
           x="116.98372"
           y="-267.77499">BIND</tspan>
      </text>
      <text
         id="text3471-0-3"
         transform="matrix(0.99235617,0,-0.17763746,-1.0077027,0,0)"
         style="font-size:38.40000153px"
         x="112.74373"
         y="-306.75479">
        <tspan
           id="tspan3473-6-5"
           sodipodi:role="line"
           style="font-size:38.40000153px;font-variant:normal;font-weight:normal;writing-mode:lr-tb;fill:#49608a;fill-opacity:1;fill-rule:nonzero;stroke:none;font-family:Denmark;-inkscape-font-specification:Denmark"
           x="112.74373"
           y="-306.75479">boost</tspan>
      </text>
    </g>
    <path
       style="fill:none;stroke:#ff0000;stroke-width:2;stroke-linecap:butt;stroke-linejoin:miter;stroke-miterlimit:4;stroke-opacity:1;stroke-dasharray:4, 2;stroke-dashoffset:0"
       d="m 292.30668,486.12949 -4.35486,-7.5378 8.69926,-15.5135 8.01314,0.044 1.49464,15.6767 z"
       id="path11738-6"
       inkscape:connector-curvature="0"
       sodipodi:nodetypes="cccccc" />
    <path
       id="path3363-6-9-0-1-8-6-0"
       style="fill:#ffffff;fill-opacity:1;fill-rule:nonzero;stroke:none"
       d="m 314.30158,493.21459 -16.55747,-0.074 -3.71881,-6.6128 13.22591,-7.0781 -1.27966,-15.2992 8.30514,0.2399 8.31606,14.355 z m -9.54036,-15.1178 -13.87302,7.6709 5.5919,9.5613 19.08804,0.085 9.5538,-16.673 -9.57778,-16.533 -12.01181,-0.1406"
       inkscape:connector-curvature="0"
       inkscape:export-filename="C:\Users\Adam\Desktop\bg_logo1.png"
       inkscape:export-xdpi="63.625523"
       inkscape:export-ydpi="63.625523"
       sodipodi:nodetypes="ccccccccccccccc" />
    <path
       id="path3363-6-9-0-1-8-9"
       style="fill:#ffffff;fill-opacity:1;fill-rule:nonzero;stroke:none"
       d="m 242.89149,503.55549 8.16342,-13.9478 16.19261,0 8.23123,14.0825 -8.23123,13.947 -16.19261,0 z m 25.7341,-16.3468 -18.95143,0 -0.47542,0.8125 -8.60473,14.7018 -0.48305,0.8248 0.47985,0.8272 8.60472,14.8429 0.47444,0.8183 18.95045,0 0.47608,-0.8068 8.67629,-14.7009 0.48994,-0.8306 -0.48584,-0.8321 -8.67653,-14.8438 -0.47477,-0.8133"
       inkscape:connector-curvature="0"
       inkscape:export-filename="C:\Users\Adam\Desktop\bg_logo1.png"
       inkscape:export-xdpi="63.625523"
       inkscape:export-ydpi="63.625523"
       sodipodi:nodetypes="cccccccccccccccccccccc" />
    <path
       style="fill:#ff0000;fill-opacity:1;stroke:none"
       d="m 260.91041,466.29599 -3.81915,-6.5557 8.69926,-15.5135 8.01314,0.044 1.49464,15.6767 z"
       id="path11738-6-8"
       inkscape:connector-curvature="0"
       sodipodi:nodetypes="cccccc" />
    <path
       style="fill:#808080;fill-opacity:1;stroke:none"
       d="m 289.37108,462.82089 8.86183,10.9063 -13.83145,-2.6242 c 0,0 2.03801,-0.4465 3.8167,-3.3298 1.68783,-2.7361 1.15292,-4.9523 1.15292,-4.9523 z"
       id="path10745-8-3"
       inkscape:connector-curvature="0"
       sodipodi:nodetypes="cccsc" />
    <path
       style="fill:none;stroke:#808080;stroke-width:2;stroke-linecap:butt;stroke-linejoin:miter;stroke-miterlimit:4;stroke-opacity:1;stroke-dasharray:none;marker-end:none"
       d="m 275.12629,460.13369 15.99853,9.2487"
       id="path5627-5-5"
       inkscape:connector-curvature="0"
       sodipodi:nodetypes="cc" />
    <path
       style="fill:#808080;fill-opacity:1;stroke:none"
       d="m 273.61287,500.94359 -13.6946,3.1525 8.44782,-11.2619 c 0,0 -0.49677,2.0263 1.30845,4.8931 1.71303,2.7204 3.93833,3.2163 3.93833,3.2163 z"
       id="path10745-8-3-7"
       inkscape:connector-curvature="0"
       sodipodi:nodetypes="cccsc" />
    <path
       style="fill:none;stroke:#808080;stroke-width:2;stroke-linecap:butt;stroke-linejoin:miter;stroke-miterlimit:4;stroke-opacity:1;stroke-dasharray:none;marker-end:none"
       d="m 291.41368,486.61219 c 0,0 -15.25489,7.7842 -22.93262,11.7435"
       id="path5627-5-5-9"
       inkscape:connector-curvature="0"
       sodipodi:nodetypes="cc" />
    <g
       id="g3319-1-2-5-1-2-3"
       transform="matrix(0.10419818,0,0,-0.10419818,176.20674,947.96638)"
       style="fill:url(#radialGradient10699-2-3-6);fill-opacity:1"
       inkscape:export-filename="C:\Users\Adam\Desktop\bg_logo1.png"
       inkscape:export-xdpi="63.625523"
       inkscape:export-ydpi="63.625523">
      <g
         clip-path="url(#clipPath3323-7-2-4-5-50-9-0)"
         id="g3321-9-2-7-4-2-3"
         style="fill:url(#radialGradient12306-1);fill-opacity:1">
        <path
           id="path3335-8-7-3-8-1-4"
           style="fill:url(#radialGradient4516-1-1-2);fill-opacity:1;fill-rule:nonzero;stroke:none"
           d="m 997.469,2312.51 c -322.379,0 -583.739,261.36 -583.739,583.74 0,322.38 261.36,583.74 583.739,583.74 322.381,0 583.741,-261.36 583.741,-583.74 0,-322.38 -261.36,-583.74 -583.741,-583.74"
           inkscape:connector-curvature="0" />
      </g>
    </g>
    <g
       id="g3347-6-8-3-7-5-3"
       transform="matrix(0.125,0,0,-0.125,151.18024,1010.7851)"
       style="fill:url(#linearGradient10695-8-5-8);fill-opacity:1"
       inkscape:export-filename="C:\Users\Adam\Desktop\bg_logo1.png"
       inkscape:export-xdpi="63.625523"
       inkscape:export-ydpi="63.625523">
      <g
         clip-path="url(#clipPath3351-4-7-3-5-1-9-9)"
         id="g3349-5-5-4-7-5-9"
         style="fill:url(#linearGradient10693-4-3-8);fill-opacity:1">
        <path
           id="path3361-0-8-2-9-3-2"
           style="fill:url(#linearGradient4510-7-1-1);fill-opacity:1;fill-rule:nonzero;stroke:none"
           d="m 757.242,2926.25 -110.687,-189.11 110.656,-190.89 219.437,0 111.622,189.1 -111.59,190.9 -219.438,0"
           inkscape:connector-curvature="0" />
      </g>
    </g>
    <path
       id="path3363-6-9-0-1-8-7"
       style="fill:#ffffff;fill-opacity:1;fill-rule:nonzero;stroke:none"
       d="m 233.44536,668.64638 13.106,-22.3925 25.99649,0 13.21487,22.6088 -13.21487,22.3912 -25.99649,0 -13.106,-22.6075 z m 40.53761,-24.8925 -28.86524,0 -0.72412,1.2375 -13.106,22.3925 -0.73575,1.2563 0.73087,1.26 13.106,22.6074 0.72263,1.2464 28.86374,0 0.72512,-1.2289 13.215,-22.3912 0.74625,-1.265 -0.74,-1.2675 -13.21537,-22.6087 -0.72313,-1.2388"
       inkscape:connector-curvature="0"
       inkscape:export-filename="C:\Users\Adam\Desktop\bg_logo1.png"
       inkscape:export-xdpi="63.625523"
       inkscape:export-ydpi="63.625523" />
    <g
       id="g3365-0-4-1-9-9-2"
       transform="matrix(0.125,0,0,-0.125,151.18024,1010.7851)"
       style="fill:url(#linearGradient10691-8-1-3);fill-opacity:1"
       inkscape:export-filename="C:\Users\Adam\Desktop\bg_logo1.png"
       inkscape:export-xdpi="63.625523"
       inkscape:export-ydpi="63.625523">
      <g
         clip-path="url(#clipPath3369-1-5-6-1-4-5-5)"
         id="g3367-2-4-2-8-2-1"
         style="fill:url(#linearGradient10689-8-3-7);fill-opacity:1">
        <path
           id="path3379-4-6-7-6-8-7"
           style="fill:url(#linearGradient4498-3-9-1);fill-opacity:1;fill-rule:nonzero;stroke:none"
           d="m 1131.64,3128.5 -104.95,-181.12 116.38,-200.42 208.05,0.94 112.02,191.63 -112.08,188.97 -219.42,0"
           inkscape:connector-curvature="0" />
      </g>
    </g>
    <path
       id="path3381-6-8-0-0-4-6"
       style="fill:#ffffff;fill-opacity:1;fill-rule:nonzero;stroke:none"
       d="m 280.96147,642.36268 12.3925,-21.39 25.99624,0 13.27125,22.3762 -13.27125,22.7025 -24.56874,0.11 -13.82,-23.7987 z m 39.81249,-23.89 -28.86124,0 -0.7225,1.2462 -12.3925,21.39 -0.72625,1.255 0.7275,1.2538 13.82,23.7987 0.7275,1.2513 1.44625,-0.01 24.56874,-0.11 1.4275,-0.01 0.72,-1.2325 13.27125,-22.7025 0.7425,-1.27 -0.75125,-1.2663 -13.27125,-22.3762 -0.72625,-1.225"
       inkscape:connector-curvature="0"
       inkscape:export-filename="C:\Users\Adam\Desktop\bg_logo1.png"
       inkscape:export-xdpi="63.625523"
       inkscape:export-ydpi="63.625523" />
    <g
       id="g3383-5-5-2-2-2-1"
       transform="matrix(0.125,0,0,-0.125,151.18024,1010.7851)"
       style="fill:url(#linearGradient10687-1-1-25);fill-opacity:1"
       inkscape:export-filename="C:\Users\Adam\Desktop\bg_logo1.png"
       inkscape:export-xdpi="63.625523"
       inkscape:export-ydpi="63.625523">
      <g
         clip-path="url(#clipPath3387-3-6-4-2-17-3-87)"
         id="g3385-0-6-4-8-7-7"
         style="fill:url(#linearGradient10685-4-9-0);fill-opacity:1">
        <path
           id="path3397-9-6-1-6-5-3"
           style="fill:url(#linearGradient12489-8);fill-opacity:1;fill-rule:nonzero;stroke:none"
           d="m 862.109,3289.75 -109.086,-190.45 69.122,-124.42 164.511,-0.47 c 0,0 111.044,188.28 116.564,197.63 7.66,0 43.03,0 43.03,0 l -67.03,117.71 -217.111,0"
           inkscape:connector-curvature="0" />
      </g>
    </g>
    <path
       id="path3399-6-7-3-2-8-0"
       style="fill:#ffffff;fill-opacity:1;fill-rule:nonzero;stroke:none"
       d="m 246.74323,623.38268 12.92424,-22.5663 25.68775,0 6.95625,12.2138 -3.94375,0 -14.56837,24.7025 -19.11525,-0.055 -7.94087,-14.295 z m 40.06574,-25.0663 -28.59012,0 -0.71975,1.2575 -12.92537,22.5663 -0.70112,1.2237 0.68512,1.2325 7.94137,14.295 0.71087,1.2825 1.46638,0 19.11525,0.055 1.43212,0 0.729,-1.2337 13.84375,-23.4725 6.81625,0 -2.12875,-3.7375 -6.95625,-12.2138 -0.71875,-1.2625"
       inkscape:connector-curvature="0"
       inkscape:export-filename="C:\Users\Adam\Desktop\bg_logo1.png"
       inkscape:export-xdpi="63.625523"
       inkscape:export-ydpi="63.625523" />
    <g
       transform="matrix(1.25,0,0,-1.25,144.11783,1023.8056)"
       id="g3465-0-4-6"
       inkscape:export-filename="C:\Users\Adam\Desktop\bg_logo1.png"
       inkscape:export-xdpi="63.625523"
       inkscape:export-ydpi="63.625523">
      <text
         id="text3467-9-09-0"
         transform="matrix(1,0,-0.17627963,-1,0,0)"
         x="116.98372"
         y="-267.77499"
         style="font-size:11.81779194px">
        <tspan
           id="tspan3469-0-44-2"
           sodipodi:role="line"
           style="font-size:46.39999771px;font-variant:normal;font-weight:normal;writing-mode:lr-tb;fill:#49608a;fill-opacity:1;fill-rule:nonzero;stroke:none;font-family:Denmark;-inkscape-font-specification:Denmark"
           x="116.98372"
           y="-267.77499">BIND</tspan>
      </text>
      <text
         id="text3471-0-3-5"
         transform="matrix(0.99235617,0,-0.17763746,-1.0077027,0,0)"
         style="font-size:38.40000153px"
         x="112.74373"
         y="-306.75479">
        <tspan
           id="tspan3473-6-5-6"
           sodipodi:role="line"
           style="font-size:38.40000153px;font-variant:normal;font-weight:normal;writing-mode:lr-tb;fill:#49608a;fill-opacity:1;fill-rule:nonzero;stroke:none;font-family:Denmark;-inkscape-font-specification:Denmark"
           x="112.74373"
           y="-306.75479">boost</tspan>
      </text>
    </g>
    <path
       style="fill:none;stroke:#3232ee;stroke-width:2;stroke-linecap:butt;stroke-linejoin:miter;stroke-miterlimit:4;stroke-opacity:1;stroke-dasharray:4, 2;stroke-dashoffset:0"
       d="m 260.47711,652.32688 9.33584,-0.2554 8.86335,15.4204 -4.27101,7.1422 -14.19605,-6.7505 z"
       id="path11738-6-0"
       inkscape:connector-curvature="0"
       sodipodi:nodetypes="cccccc" />
    <path
       id="path3363-6-9-0-1-8-6-0-7"
       style="fill:#ffffff;fill-opacity:1;fill-rule:nonzero;stroke:none"
       d="m 243.58637,667.94778 8.22203,-14.372 7.36573,0.054 -0.13596,14.965 13.94383,6.4243 -4.30065,7.1089 -16.58908,0.164 z m 17.85602,-0.8536 -0.0294,-15.8202 -10.886,0.1237 -9.47884,16.5684 9.80179,16.5285 19.10598,-0.1889 6.04049,-10.3834"
       inkscape:connector-curvature="0"
       inkscape:export-filename="C:\Users\Adam\Desktop\bg_logo1.png"
       inkscape:export-xdpi="63.625523"
       inkscape:export-ydpi="63.625523"
       sodipodi:nodetypes="ccccccccccccccc" />
    <path
       style="fill:#808080;fill-opacity:1;stroke:none"
       d="m 283.08203,661.14018 -13.85715,2.3366 9.09944,-10.7423 c 0,0 -0.61581,1.9934 1.0166,4.962 1.54905,2.817 3.74111,3.4437 3.74111,3.4437 z"
       id="path10745-8-3-7-4"
       inkscape:connector-curvature="0"
       sodipodi:nodetypes="cccsc" />
    <path
       style="fill:none;stroke:#808080;stroke-width:2;stroke-linecap:butt;stroke-linejoin:miter;stroke-miterlimit:4;stroke-opacity:1;stroke-dasharray:none;marker-end:none"
       d="M 299.1038,646.24568 276.55,659.37828"
       id="path5627-5-5-9-3"
       inkscape:connector-curvature="0"
       sodipodi:nodetypes="cc" />
    <path
       style="fill:#3030cf;fill-opacity:1;stroke:none"
       d="m 297.86815,630.46198 8.0528,-0.1845 9.96053,15.8817 -3.75654,7.0781 -14.58133,-5.948 z"
       id="path11738-6-8-0"
       inkscape:connector-curvature="0"
       sodipodi:nodetypes="cccccc" />
  </g>
</svg>
