<?xml version="1.0" encoding="UTF-8" standalone="no"?>
<!-- Created with Inkscape (http://www.inkscape.org/) -->

<svg
   xmlns:dc="http://purl.org/dc/elements/1.1/"
   xmlns:cc="http://creativecommons.org/ns#"
   xmlns:rdf="http://www.w3.org/1999/02/22-rdf-syntax-ns#"
   xmlns:svg="http://www.w3.org/2000/svg"
   xmlns="http://www.w3.org/2000/svg"
   xmlns:xlink="http://www.w3.org/1999/xlink"
   xmlns:sodipodi="http://sodipodi.sourceforge.net/DTD/sodipodi-0.dtd"
   xmlns:inkscape="http://www.inkscape.org/namespaces/inkscape"
   width="744.09448819"
   height="1052.3622047"
   id="svg6858"
   version="1.1"
   inkscape:version="0.48.4 r9939"
   sodipodi:docname="Nowy dokument 8">
  <defs
     id="defs6860">
    <linearGradient
       inkscape:collect="always"
       xlink:href="#linearGradient4453-7-8-6-7-3-5"
       id="linearGradient10687-2-5"
       gradientUnits="userSpaceOnUse"
       x1="753.02301"
       y1="3132.0801"
       x2="1146.25"
       y2="3132.0801" />
    <linearGradient
       id="linearGradient4453-7-8-6-7-3-5">
      <stop
         style="stop-color:#aac4dd;stop-opacity:1;"
         offset="0"
         id="stop4455-61-8-7-1-2-8" />
      <stop
         style="stop-color:#c2dbe9;stop-opacity:1;"
         offset="1"
         id="stop4457-4-1-9-1-12-1" />
    </linearGradient>
    <linearGradient
       inkscape:collect="always"
       xlink:href="#linearGradient4453-7-8-6-7-3-5"
       id="linearGradient10685-2-2"
       gradientUnits="userSpaceOnUse"
       x1="753.02301"
       y1="3132.0801"
       x2="1146.25"
       y2="3132.0801" />
    <linearGradient
       id="linearGradient6749">
      <stop
         style="stop-color:#aac4dd;stop-opacity:1;"
         offset="0"
         id="stop6751" />
      <stop
         style="stop-color:#c2dbe9;stop-opacity:1;"
         offset="1"
         id="stop6753" />
    </linearGradient>
    <clipPath
       clipPathUnits="userSpaceOnUse"
       id="clipPath3387-3-6-4-2-8-4">
      <path
         inkscape:connector-curvature="0"
         d="m 862.109,3289.75 -109.086,-190.45 69.122,-124.42 164.511,-0.47 c 0,0 111.044,188.28 116.564,197.63 7.66,0 43.03,0 43.03,0 l -67.03,117.71 -217.111,0 z"
         id="path3389-2-0-7-7-8-9" />
    </clipPath>
    <linearGradient
       y2="3132.0801"
       x2="1146.25"
       y1="3132.0801"
       x1="753.02301"
       gradientUnits="userSpaceOnUse"
       id="linearGradient4492-8-8"
       xlink:href="#linearGradient4453-7-8-6-7-3-5"
       inkscape:collect="always" />
    <linearGradient
       id="linearGradient6758">
      <stop
         style="stop-color:#aac4dd;stop-opacity:1;"
         offset="0"
         id="stop6760" />
      <stop
         style="stop-color:#c2dbe9;stop-opacity:1;"
         offset="1"
         id="stop6762" />
    </linearGradient>
    <linearGradient
       inkscape:collect="always"
       xlink:href="#linearGradient4453-7-8-6-7-3-5"
       id="linearGradient10691-7-8"
       gradientUnits="userSpaceOnUse"
       x1="1026.6899"
       y1="2937.73"
       x2="1463.14"
       y2="2937.73" />
    <linearGradient
       id="linearGradient6765">
      <stop
         style="stop-color:#aac4dd;stop-opacity:1;"
         offset="0"
         id="stop6767" />
      <stop
         style="stop-color:#c2dbe9;stop-opacity:1;"
         offset="1"
         id="stop6769" />
    </linearGradient>
    <linearGradient
       inkscape:collect="always"
       xlink:href="#linearGradient4453-7-8-6-7-3-5"
       id="linearGradient10689-4-2"
       gradientUnits="userSpaceOnUse"
       x1="1026.6899"
       y1="2937.73"
       x2="1463.14"
       y2="2937.73" />
    <linearGradient
       id="linearGradient6772">
      <stop
         style="stop-color:#aac4dd;stop-opacity:1;"
         offset="0"
         id="stop6774" />
      <stop
         style="stop-color:#c2dbe9;stop-opacity:1;"
         offset="1"
         id="stop6776" />
    </linearGradient>
    <clipPath
       clipPathUnits="userSpaceOnUse"
       id="clipPath3369-1-5-6-1-0-7">
      <path
         inkscape:connector-curvature="0"
         d="m 1131.64,3128.5 -104.95,-181.12 116.38,-200.42 208.05,0.94 112.02,191.63 -112.08,188.97 -219.42,0 z"
         id="path3371-89-4-1-6-0-1" />
    </clipPath>
    <linearGradient
       y2="2937.73"
       x2="1463.14"
       y1="2937.73"
       x1="1026.6899"
       gradientUnits="userSpaceOnUse"
       id="linearGradient4498-5-7"
       xlink:href="#linearGradient4453-7-8-6-7-3-5"
       inkscape:collect="always" />
    <linearGradient
       id="linearGradient6781">
      <stop
         style="stop-color:#aac4dd;stop-opacity:1;"
         offset="0"
         id="stop6783" />
      <stop
         style="stop-color:#c2dbe9;stop-opacity:1;"
         offset="1"
         id="stop6785" />
    </linearGradient>
    <linearGradient
       inkscape:collect="always"
       xlink:href="#linearGradient4459-1-2-8-9-9-5"
       id="linearGradient10695-9-9"
       gradientUnits="userSpaceOnUse"
       x1="646.55499"
       y1="2736.25"
       x2="1088.27"
       y2="2736.25" />
    <linearGradient
       id="linearGradient4459-1-2-8-9-9-5">
      <stop
         id="stop4461-2-1-5-2-5-0"
         offset="0"
         style="stop-color:#839bc2;stop-opacity:1;" />
      <stop
         id="stop4463-3-2-8-7-30-3"
         offset="1"
         style="stop-color:#9fb6d4;stop-opacity:1;" />
    </linearGradient>
    <linearGradient
       inkscape:collect="always"
       xlink:href="#linearGradient4459-1-2-8-9-9-5"
       id="linearGradient10693-9-4"
       gradientUnits="userSpaceOnUse"
       x1="646.55499"
       y1="2736.25"
       x2="1088.27"
       y2="2736.25" />
    <linearGradient
       id="linearGradient6792">
      <stop
         id="stop6794"
         offset="0"
         style="stop-color:#839bc2;stop-opacity:1;" />
      <stop
         id="stop6796"
         offset="1"
         style="stop-color:#9fb6d4;stop-opacity:1;" />
    </linearGradient>
    <clipPath
       clipPathUnits="userSpaceOnUse"
       id="clipPath3351-4-7-3-5-95-0">
      <path
         inkscape:connector-curvature="0"
         d="m 757.242,2926.25 -110.687,-189.11 110.656,-190.89 219.437,0 111.622,189.1 -111.59,190.9 -219.438,0 z"
         id="path3353-1-9-3-4-1-1" />
    </clipPath>
    <linearGradient
       y2="2736.25"
       x2="1088.27"
       y1="2736.25"
       x1="646.55499"
       gradientUnits="userSpaceOnUse"
       id="linearGradient4510-1-5"
       xlink:href="#linearGradient4459-1-2-8-9-9-5"
       inkscape:collect="always" />
    <linearGradient
       id="linearGradient6801">
      <stop
         id="stop6803"
         offset="0"
         style="stop-color:#839bc2;stop-opacity:1;" />
      <stop
         id="stop6805"
         offset="1"
         style="stop-color:#9fb6d4;stop-opacity:1;" />
    </linearGradient>
    <radialGradient
       inkscape:collect="always"
       xlink:href="#radialGradient3327-8-4-8-0-2-4"
       id="radialGradient10699-1-3"
       gradientUnits="userSpaceOnUse"
       cx="997.46997"
       cy="2896.25"
       fx="997.46997"
       fy="2896.25"
       r="583.73999" />
    <radialGradient
       fx="0"
       fy="0"
       cx="0"
       cy="0"
       r="1"
       gradientUnits="userSpaceOnUse"
       gradientTransform="matrix(58.375,0,0,-58.375,99.75,289.625)"
       spreadMethod="pad"
       id="radialGradient3327-8-4-8-0-2-4">
      <stop
         style="stop-opacity:1;stop-color:#aeaeb3"
         offset="0"
         id="stop3329-7-0-1-0-33-2" />
      <stop
         style="stop-opacity:1;stop-color:#ffffff"
         offset="0.949438"
         id="stop3331-4-3-0-0-97-3" />
      <stop
         style="stop-opacity:1;stop-color:#ffffff"
         offset="1"
         id="stop3333-2-4-9-7-2-2" />
    </radialGradient>
    <radialGradient
       r="583.73999"
       fy="2896.25"
       fx="997.46997"
       cy="2896.25"
       cx="997.46997"
       gradientUnits="userSpaceOnUse"
       id="radialGradient13050"
       xlink:href="#radialGradient3327-8-4-8-0-2-4"
       inkscape:collect="always" />
    <radialGradient
       fx="0"
       fy="0"
       cx="0"
       cy="0"
       r="1"
       gradientUnits="userSpaceOnUse"
       gradientTransform="matrix(58.375,0,0,-58.375,99.75,289.625)"
       spreadMethod="pad"
       id="radialGradient6813">
      <stop
         style="stop-opacity:1;stop-color:#aeaeb3"
         offset="0"
         id="stop6815" />
      <stop
         style="stop-opacity:1;stop-color:#ffffff"
         offset="0.949438"
         id="stop6817" />
      <stop
         style="stop-opacity:1;stop-color:#ffffff"
         offset="1"
         id="stop6819" />
    </radialGradient>
    <clipPath
       clipPathUnits="userSpaceOnUse"
       id="clipPath3323-7-2-4-5-3-4">
      <path
         inkscape:connector-curvature="0"
         d="m 997.469,2312.51 c -322.379,0 -583.739,261.36 -583.739,583.74 0,322.38 261.36,583.74 583.739,583.74 322.381,0 583.741,-261.36 583.741,-583.74 0,-322.38 -261.36,-583.74 -583.741,-583.74"
         id="path3325-9-2-9-5-04-9" />
    </clipPath>
    <radialGradient
       r="583.73999"
       fy="2896.25"
       fx="997.46997"
       cy="2896.25"
       cx="997.46997"
       gradientUnits="userSpaceOnUse"
       id="radialGradient4516-8-2"
       xlink:href="#radialGradient3327-8-4-8-0-2-4"
       inkscape:collect="always" />
    <radialGradient
       fx="0"
       fy="0"
       cx="0"
       cy="0"
       r="1"
       gradientUnits="userSpaceOnUse"
       gradientTransform="matrix(58.375,0,0,-58.375,99.75,289.625)"
       spreadMethod="pad"
       id="radialGradient6824">
      <stop
         style="stop-opacity:1;stop-color:#aeaeb3"
         offset="0"
         id="stop6826" />
      <stop
         style="stop-opacity:1;stop-color:#ffffff"
         offset="0.949438"
         id="stop6828" />
      <stop
         style="stop-opacity:1;stop-color:#ffffff"
         offset="1"
         id="stop6830" />
    </radialGradient>
    <radialGradient
       r="583.73999"
       fy="2896.25"
       fx="997.46997"
       cy="2896.25"
       cx="997.46997"
       gradientUnits="userSpaceOnUse"
       id="radialGradient6856"
       xlink:href="#radialGradient3327-8-4-8-0-2-4"
       inkscape:collect="always" />
  </defs>
  <sodipodi:namedview
     id="base"
     pagecolor="#ffffff"
     bordercolor="#666666"
     borderopacity="1.0"
     inkscape:pageopacity="0.0"
     inkscape:pageshadow="2"
     inkscape:zoom="0.35"
     inkscape:cx="338.69851"
     inkscape:cy="496.65995"
     inkscape:document-units="px"
     inkscape:current-layer="layer1"
     showgrid="false"
     inkscape:window-width="511"
     inkscape:window-height="453"
     inkscape:window-x="150"
     inkscape:window-y="150"
     inkscape:window-maximized="0" />
  <metadata
     id="metadata6863">
    <rdf:RDF>
      <cc:Work
         rdf:about="">
        <dc:format>image/svg+xml</dc:format>
        <dc:type
           rdf:resource="http://purl.org/dc/dcmitype/StillImage" />
        <dc:title></dc:title>
      </cc:Work>
    </rdf:RDF>
  </metadata>
  <g
     inkscape:label="Layer 1"
     inkscape:groupmode="layer"
     id="layer1">
    <g
       id="g3319-1-2-5-1-4-4"
       transform="matrix(0.10419818,0,0,-0.10419818,137.10955,897.00327)"
       style="fill:url(#radialGradient10699-1-3);fill-opacity:1"
       inkscape:export-filename="C:\Users\Adam\Desktop\bg_logo1.png"
       inkscape:export-xdpi="63.625523"
       inkscape:export-ydpi="63.625523">
      <g
         clip-path="url(#clipPath3323-7-2-4-5-3-4)"
         id="g3321-9-2-7-4-3-9"
         style="fill:url(#radialGradient6856);fill-opacity:1">
        <path
           id="path3335-8-7-3-8-92-0"
           style="fill:url(#radialGradient4516-8-2);fill-opacity:1;fill-rule:nonzero;stroke:none"
           d="m 997.469,2312.51 c -322.379,0 -583.739,261.36 -583.739,583.74 0,322.38 261.36,583.74 583.739,583.74 322.381,0 583.741,-261.36 583.741,-583.74 0,-322.38 -261.36,-583.74 -583.741,-583.74"
           inkscape:connector-curvature="0" />
      </g>
    </g>
    <g
       id="g3347-6-8-3-7-4-4"
       transform="matrix(0.125,0,0,-0.125,112.08304,959.82207)"
       style="fill:url(#linearGradient10695-9-9);fill-opacity:1"
       inkscape:export-filename="C:\Users\Adam\Desktop\bg_logo1.png"
       inkscape:export-xdpi="63.625523"
       inkscape:export-ydpi="63.625523">
      <g
         clip-path="url(#clipPath3351-4-7-3-5-95-0)"
         id="g3349-5-5-4-7-9-4"
         style="fill:url(#linearGradient10693-9-4);fill-opacity:1">
        <path
           id="path3361-0-8-2-9-0-9"
           style="fill:url(#linearGradient4510-1-5);fill-opacity:1;fill-rule:nonzero;stroke:none"
           d="m 757.242,2926.25 -110.687,-189.11 110.656,-190.89 219.437,0 111.622,189.1 -111.59,190.9 -219.438,0"
           inkscape:connector-curvature="0" />
      </g>
    </g>
    <path
       id="path3363-6-9-0-1-5-8"
       style="fill:#ffffff;fill-opacity:1;fill-rule:nonzero;stroke:none"
       d="m 194.34816,617.68335 13.106,-22.3925 25.99649,0 13.21487,22.60874 -13.21487,22.39125 -25.99649,0 -13.106,-22.60749 z m 40.53761,-24.8925 -28.86524,0 -0.72412,1.23749 -13.106,22.39251 -0.73575,1.25625 0.73087,1.26 13.106,22.60744 0.72263,1.24634 28.86374,0 0.72512,-1.22884 13.215,-22.39119 0.74625,-1.265 -0.74,-1.26751 -13.21537,-22.60875 -0.72313,-1.23874"
       inkscape:connector-curvature="0"
       inkscape:export-filename="C:\Users\Adam\Desktop\bg_logo1.png"
       inkscape:export-xdpi="63.625523"
       inkscape:export-ydpi="63.625523" />
    <g
       id="g3365-0-4-1-9-7-5"
       transform="matrix(0.125,0,0,-0.125,112.08304,959.82207)"
       style="fill:url(#linearGradient10691-7-8);fill-opacity:1"
       inkscape:export-filename="C:\Users\Adam\Desktop\bg_logo1.png"
       inkscape:export-xdpi="63.625523"
       inkscape:export-ydpi="63.625523">
      <g
         clip-path="url(#clipPath3369-1-5-6-1-0-7)"
         id="g3367-2-4-2-8-4-3"
         style="fill:url(#linearGradient10689-4-2);fill-opacity:1">
        <path
           id="path3379-4-6-7-6-7-2"
           style="fill:url(#linearGradient4498-5-7);fill-opacity:1;fill-rule:nonzero;stroke:none"
           d="m 1131.64,3128.5 -104.95,-181.12 116.38,-200.42 208.05,0.94 112.02,191.63 -112.08,188.97 -219.42,0"
           inkscape:connector-curvature="0" />
      </g>
    </g>
    <path
       id="path3381-6-8-0-0-66-3"
       style="fill:#ffffff;fill-opacity:1;fill-rule:nonzero;stroke:none"
       d="m 241.86427,591.39959 12.3925,-21.38999 25.99625,0 13.27125,22.37625 -13.27125,22.7025 -24.56875,0.11 -13.82,-23.79876 z m 39.8125,-23.88999 -28.86125,0 -0.7225,1.24625 -12.3925,21.39 -0.72625,1.255 0.7275,1.25374 13.82,23.79876 0.7275,1.25125 1.44625,-0.006 24.56875,-0.11 1.4275,-0.006 0.72,-1.2325 13.27125,-22.7025 0.7425,-1.27 -0.75125,-1.26625 -13.27125,-22.37625 -0.72625,-1.225"
       inkscape:connector-curvature="0"
       inkscape:export-filename="C:\Users\Adam\Desktop\bg_logo1.png"
       inkscape:export-xdpi="63.625523"
       inkscape:export-ydpi="63.625523" />
    <g
       id="g3383-5-5-2-2-3-0"
       transform="matrix(0.125,0,0,-0.125,112.08304,959.82207)"
       style="fill:url(#linearGradient10687-2-5);fill-opacity:1"
       inkscape:export-filename="C:\Users\Adam\Desktop\bg_logo1.png"
       inkscape:export-xdpi="63.625523"
       inkscape:export-ydpi="63.625523">
      <g
         clip-path="url(#clipPath3387-3-6-4-2-8-4)"
         id="g3385-0-6-4-8-0-1"
         style="fill:url(#linearGradient10685-2-2);fill-opacity:1">
        <path
           id="path3397-9-6-1-6-9-7"
           style="fill:url(#linearGradient4492-8-8);fill-opacity:1;fill-rule:nonzero;stroke:none"
           d="m 862.109,3289.75 -109.086,-190.45 69.122,-124.42 164.511,-0.47 c 0,0 111.044,188.28 116.564,197.63 7.66,0 43.03,0 43.03,0 l -67.03,117.71 -217.111,0"
           inkscape:connector-curvature="0" />
      </g>
    </g>
    <path
       id="path3399-6-7-3-2-0-1"
       style="fill:#ffffff;fill-opacity:1;fill-rule:nonzero;stroke:none"
       d="m 207.64603,572.41959 12.92424,-22.56624 25.68775,0 6.95625,12.21375 -3.94375,0 -14.56837,24.7025 -19.11525,-0.055 -7.94087,-14.295 z m 40.06574,-25.06624 -28.59012,0 -0.71975,1.2575 -12.92537,22.56625 -0.70112,1.22375 0.68512,1.23249 7.94137,14.295 0.71087,1.2825 1.46638,0.004 19.11525,0.055 1.43212,0.004 0.729,-1.23375 13.84375,-23.47249 6.81625,0 -2.12875,-3.7375 -6.95625,-12.21375 -0.71875,-1.2625"
       inkscape:connector-curvature="0"
       inkscape:export-filename="C:\Users\Adam\Desktop\bg_logo1.png"
       inkscape:export-xdpi="63.625523"
       inkscape:export-ydpi="63.625523" />
    <g
       transform="matrix(1.25,0,0,-1.25,105.02062,972.84257)"
       id="g3465-0-8-9"
       inkscape:export-filename="C:\Users\Adam\Desktop\bg_logo1.png"
       inkscape:export-xdpi="63.625523"
       inkscape:export-ydpi="63.625523">
      <text
         id="text3467-9-0-8"
         transform="matrix(1,0,-0.17627963,-1,0,0)"
         x="116.98372"
         y="-267.77499"
         style="font-size:11.81779194px">
        <tspan
           sodipodi:role="line"
           style="font-size:46.39999771px;font-variant:normal;font-weight:normal;writing-mode:lr-tb;fill:#49608a;fill-opacity:1;fill-rule:nonzero;stroke:none;font-family:Denmark;-inkscape-font-specification:Denmark"
           x="116.98372"
           y="-267.77499"
           id="tspan13239">UTILITY</tspan>
        <tspan
           sodipodi:role="line"
           style="font-size:46.39999771px;font-variant:normal;font-weight:normal;writing-mode:lr-tb;fill:#49608a;fill-opacity:1;fill-rule:nonzero;stroke:none;font-family:Denmark;-inkscape-font-specification:Denmark"
           x="116.98372"
           y="-209.77499"
           id="tspan11278-3" />
      </text>
      <text
         id="text3471-0-51-2"
         transform="matrix(0.99235617,0,-0.17763746,-1.0077027,0,0)"
         style="font-size:38.40000153px"
         x="112.74373"
         y="-306.75479">
        <tspan
           id="tspan3473-6-0-9"
           sodipodi:role="line"
           style="font-size:38.40000153px;font-variant:normal;font-weight:normal;writing-mode:lr-tb;fill:#49608a;fill-opacity:1;fill-rule:nonzero;stroke:none;font-family:Denmark;-inkscape-font-specification:Denmark"
           x="112.74373"
           y="-306.75479">boost</tspan>
      </text>
    </g>
    <path
       style="fill:#ffffff;fill-opacity:1;stroke:none"
       d="m 229.15647,610.70917 -12.33258,8.53857 1.70771,2.46652 12.33259,-8.53858 c 2.52989,1.89728 5.81858,-0.37967 5.7552,-3.98466 l -3.28869,2.27695 -1.70771,-2.46652 3.28869,-2.27695 c -2.52989,-1.89728 -6.64075,0.94891 -5.75521,3.98467 z"
       id="path13243"
       inkscape:connector-curvature="0"
       sodipodi:nodetypes="ccccccccc" />
    <path
       style="fill:#ffffff;fill-opacity:1;stroke:none"
       d="m 212.61201,625.86318 12.30675,-8.57577 -1.7149,-2.46152 -12.30674,8.57576 c -2.5356,-1.88964 -5.81742,0.39724 -5.74314,4.00209 l 3.28165,-2.28709 1.71492,2.46152 -3.28165,2.28709 c 2.5356,1.88963 6.63786,-0.96894 5.74318,-4.002 z"
       id="path13243-7"
       inkscape:connector-curvature="0"
       sodipodi:nodetypes="ccccccccc" />
    <path
       style="fill:#ffffff;fill-opacity:1;stroke:none"
       d="m 205.661,608.06587 2.64976,4.24014 3.39211,-2.11981 -0.52995,-0.84802 1.69605,-1.05991 14.52319,25.13955 4.24014,-2.64977 -16.21924,-24.07964 c 0,0 1.69864,-1.04312 2.54408,-1.58985 2.54667,-1.57308 5.61812,-2.33169 5.61812,-2.33169 0,0 -4.75839,-0.85846 -7.20538,-0.1956 -0.84803,0.52995 -6.78681,4.22284 -6.78681,4.22284 l -0.52995,-0.84803 -3.39211,2.11981"
       id="path13283"
       inkscape:connector-curvature="0"
       sodipodi:nodetypes="cccccccccccccc" />
  </g>
</svg>
